<svg width="64" height="64" viewBox="0 0 48 48" fill="none" xmlns="http://www.w3.org/2000/svg">
  <!-- Background -->
  <circle cx="24" cy="24" r="24" fill="#1a3a5c"/>

  <!-- Mother's head -->
  <circle cx="20" cy="8" r="5" fill="white"/>

  <!-- Mother's body -->
  <path d="M10 28 C10 18 14 14 20 14 C26 14 30 18 30 28 L10 28 Z" fill="white"/>

  <!-- Left arm cradling baby -->
  <path d="M10 28 C8 28 6 30 7 34 C8 37 11 38 14 37 L28 34 C30 33 31 31 30 28" fill="white"/>

  <!-- Baby body -->
  <ellipse cx="21" cy="34" rx="7" ry="4.5" fill="#c9973a"/>

  <!-- Baby head -->
  <circle cx="29" cy="31" r="3.5" fill="#c9973a"/>

  <!-- Heart -->
  <path d="M22 11 C22 9.5 23.5 8.5 24.5 9.5 C25.5 8.5 27 9.5 27 11 C27 12.5 24.5 14 24.5 14 C24.5 14 22 12.5 22 11 Z" fill="#c9973a"/>
</svg>
